<mxfile host="www.draw.io" modified="2020-08-16T17:01:25.548Z" agent="5.0 (Windows NT 10.0; Win64; x64) AppleWebKit/537.36 (KHTML, like Gecko) Chrome/84.0.4147.125 Safari/537.36" etag="IyjmTIbo5jCZVvRQR5SQ" version="13.5.5" type="github">
  <diagram id="LUdY4_xpi0KiNuSoMbE5" name="Page-1">
    <mxGraphModel dx="2272" dy="1872" grid="1" gridSize="10" guides="1" tooltips="1" connect="1" arrows="1" fold="1" page="1" pageScale="1" pageWidth="850" pageHeight="1100" math="0" shadow="0">
      <root>
        <mxCell id="0" />
        <mxCell id="1" parent="0" />
        <mxCell id="PKyjZfos0Iyk5XxEU7YQ-5" style="edgeStyle=orthogonalEdgeStyle;rounded=0;orthogonalLoop=1;jettySize=auto;html=1;exitX=1;exitY=0.5;exitDx=0;exitDy=0;entryX=0;entryY=0.5;entryDx=0;entryDy=0;" parent="1" source="PKyjZfos0Iyk5XxEU7YQ-1" target="PKyjZfos0Iyk5XxEU7YQ-4" edge="1">
          <mxGeometry relative="1" as="geometry" />
        </mxCell>
        <mxCell id="PKyjZfos0Iyk5XxEU7YQ-1" value="" style="ellipse;whiteSpace=wrap;html=1;aspect=fixed;fillColor=#000000;" parent="1" vertex="1">
          <mxGeometry x="40" y="-120" width="30" height="30" as="geometry" />
        </mxCell>
        <mxCell id="PKyjZfos0Iyk5XxEU7YQ-8" style="edgeStyle=orthogonalEdgeStyle;rounded=0;orthogonalLoop=1;jettySize=auto;html=1;exitX=1;exitY=0.5;exitDx=0;exitDy=0;" parent="1" source="PKyjZfos0Iyk5XxEU7YQ-4" target="BZrMAcmhihZut8GjaAJ6-26" edge="1">
          <mxGeometry relative="1" as="geometry" />
        </mxCell>
        <mxCell id="Et5zAZnM-OoE2oRhIEQK-2" style="edgeStyle=orthogonalEdgeStyle;rounded=0;jumpSize=6;orthogonalLoop=1;jettySize=auto;html=1;exitX=0.25;exitY=1;exitDx=0;exitDy=0;entryX=0.25;entryY=0;entryDx=0;entryDy=0;endArrow=classic;endFill=1;endSize=6;" parent="1" source="PKyjZfos0Iyk5XxEU7YQ-4" target="Et5zAZnM-OoE2oRhIEQK-1" edge="1">
          <mxGeometry relative="1" as="geometry">
            <Array as="points">
              <mxPoint x="70" y="80" />
              <mxPoint x="20" y="80" />
              <mxPoint x="20" y="310" />
              <mxPoint x="70" y="310" />
            </Array>
          </mxGeometry>
        </mxCell>
        <mxCell id="PKyjZfos0Iyk5XxEU7YQ-4" value="Login Page" style="rounded=0;whiteSpace=wrap;html=1;fillColor=#FFFFFF;" parent="1" vertex="1">
          <mxGeometry x="40" y="-10" width="120" height="60" as="geometry" />
        </mxCell>
        <mxCell id="PKyjZfos0Iyk5XxEU7YQ-6" value="App startup if the user has not logged in" style="text;html=1;strokeColor=none;fillColor=none;align=center;verticalAlign=middle;whiteSpace=wrap;rounded=0;" parent="1" vertex="1">
          <mxGeometry x="90" y="-90" width="70" height="20" as="geometry" />
        </mxCell>
        <mxCell id="vPZERwPmIaohPqJWBLdZ-5" style="edgeStyle=orthogonalEdgeStyle;rounded=0;orthogonalLoop=1;jettySize=auto;html=1;exitX=0.5;exitY=0;exitDx=0;exitDy=0;entryX=0;entryY=0.5;entryDx=0;entryDy=0;endArrow=classic;endFill=1;" parent="1" source="PKyjZfos0Iyk5XxEU7YQ-7" target="vPZERwPmIaohPqJWBLdZ-2" edge="1">
          <mxGeometry relative="1" as="geometry" />
        </mxCell>
        <mxCell id="vPZERwPmIaohPqJWBLdZ-15" style="edgeStyle=orthogonalEdgeStyle;rounded=0;orthogonalLoop=1;jettySize=auto;html=1;entryX=0;entryY=0.25;entryDx=0;entryDy=0;endArrow=classic;endFill=1;" parent="1" target="vPZERwPmIaohPqJWBLdZ-14" edge="1">
          <mxGeometry relative="1" as="geometry">
            <Array as="points">
              <mxPoint x="690" y="215" />
            </Array>
            <mxPoint x="690" y="125" as="sourcePoint" />
          </mxGeometry>
        </mxCell>
        <mxCell id="Et5zAZnM-OoE2oRhIEQK-7" style="edgeStyle=orthogonalEdgeStyle;rounded=0;jumpSize=6;orthogonalLoop=1;jettySize=auto;html=1;exitX=0.75;exitY=1;exitDx=0;exitDy=0;entryX=0;entryY=0.25;entryDx=0;entryDy=0;endArrow=classic;endFill=1;endSize=6;" parent="1" source="BZrMAcmhihZut8GjaAJ6-1" target="Et5zAZnM-OoE2oRhIEQK-6" edge="1">
          <mxGeometry relative="1" as="geometry">
            <Array as="points">
              <mxPoint x="395" y="150" />
              <mxPoint x="510" y="150" />
              <mxPoint x="510" y="345" />
            </Array>
          </mxGeometry>
        </mxCell>
        <mxCell id="W07s5E72zUU4T2gRtmsP-7" style="edgeStyle=orthogonalEdgeStyle;rounded=0;orthogonalLoop=1;jettySize=auto;html=1;exitX=0.5;exitY=0;exitDx=0;exitDy=0;entryX=0.5;entryY=1;entryDx=0;entryDy=0;" parent="1" source="BZrMAcmhihZut8GjaAJ6-1" target="W07s5E72zUU4T2gRtmsP-6" edge="1">
          <mxGeometry relative="1" as="geometry" />
        </mxCell>
        <mxCell id="BZrMAcmhihZut8GjaAJ6-8" style="edgeStyle=orthogonalEdgeStyle;rounded=0;orthogonalLoop=1;jettySize=auto;html=1;exitX=0;exitY=0.75;exitDx=0;exitDy=0;entryX=1;entryY=0.75;entryDx=0;entryDy=0;" edge="1" parent="1" source="PKyjZfos0Iyk5XxEU7YQ-7" target="BZrMAcmhihZut8GjaAJ6-1">
          <mxGeometry relative="1" as="geometry">
            <mxPoint x="430" y="110" as="targetPoint" />
          </mxGeometry>
        </mxCell>
        <mxCell id="BZrMAcmhihZut8GjaAJ6-12" style="edgeStyle=orthogonalEdgeStyle;rounded=0;orthogonalLoop=1;jettySize=auto;html=1;exitX=1;exitY=0.25;exitDx=0;exitDy=0;entryX=0;entryY=0.25;entryDx=0;entryDy=0;" edge="1" parent="1" source="PKyjZfos0Iyk5XxEU7YQ-7" target="vPZERwPmIaohPqJWBLdZ-8">
          <mxGeometry relative="1" as="geometry" />
        </mxCell>
        <mxCell id="PKyjZfos0Iyk5XxEU7YQ-7" value="Home Page" style="rounded=0;whiteSpace=wrap;html=1;fillColor=#FFFFFF;" parent="1" vertex="1">
          <mxGeometry x="600" y="65" width="120" height="60" as="geometry" />
        </mxCell>
        <mxCell id="PKyjZfos0Iyk5XxEU7YQ-9" value="Login" style="text;html=1;strokeColor=none;fillColor=none;align=center;verticalAlign=middle;whiteSpace=wrap;rounded=0;" parent="1" vertex="1">
          <mxGeometry x="217.5" y="-110" width="70" height="20" as="geometry" />
        </mxCell>
        <mxCell id="BZrMAcmhihZut8GjaAJ6-11" style="edgeStyle=orthogonalEdgeStyle;rounded=0;orthogonalLoop=1;jettySize=auto;html=1;exitX=0;exitY=0.75;exitDx=0;exitDy=0;entryX=0.75;entryY=0;entryDx=0;entryDy=0;" edge="1" parent="1" source="vPZERwPmIaohPqJWBLdZ-2" target="PKyjZfos0Iyk5XxEU7YQ-7">
          <mxGeometry relative="1" as="geometry" />
        </mxCell>
        <mxCell id="vPZERwPmIaohPqJWBLdZ-2" value="Review CSI Requests" style="rounded=0;whiteSpace=wrap;html=1;fillColor=#FFFFFF;" parent="1" vertex="1">
          <mxGeometry x="750" y="-90" width="120" height="60" as="geometry" />
        </mxCell>
        <mxCell id="vPZERwPmIaohPqJWBLdZ-4" value="Review CSI button is clicked and user is admin" style="text;html=1;strokeColor=none;fillColor=none;align=center;verticalAlign=middle;whiteSpace=wrap;rounded=0;" parent="1" vertex="1">
          <mxGeometry x="585" y="-90" width="150" height="20" as="geometry" />
        </mxCell>
        <mxCell id="vPZERwPmIaohPqJWBLdZ-7" value="(back)" style="text;html=1;strokeColor=none;fillColor=none;align=center;verticalAlign=middle;whiteSpace=wrap;rounded=0;" parent="1" vertex="1">
          <mxGeometry x="695" y="-40" width="45" height="20" as="geometry" />
        </mxCell>
        <mxCell id="vPZERwPmIaohPqJWBLdZ-10" style="edgeStyle=orthogonalEdgeStyle;rounded=0;orthogonalLoop=1;jettySize=auto;html=1;entryX=1;entryY=0.75;entryDx=0;entryDy=0;endArrow=classic;endFill=1;exitX=0;exitY=0.75;exitDx=0;exitDy=0;" parent="1" source="vPZERwPmIaohPqJWBLdZ-8" target="PKyjZfos0Iyk5XxEU7YQ-7" edge="1">
          <mxGeometry relative="1" as="geometry">
            <mxPoint x="970" y="110" as="sourcePoint" />
          </mxGeometry>
        </mxCell>
        <mxCell id="vPZERwPmIaohPqJWBLdZ-8" value="Request CSI form" style="rounded=0;whiteSpace=wrap;html=1;fillColor=#FFFFFF;" parent="1" vertex="1">
          <mxGeometry x="1010" y="65" width="120" height="60" as="geometry" />
        </mxCell>
        <mxCell id="vPZERwPmIaohPqJWBLdZ-12" value="+ button" style="text;html=1;strokeColor=none;fillColor=none;align=center;verticalAlign=middle;whiteSpace=wrap;rounded=0;" parent="1" vertex="1">
          <mxGeometry x="820" y="52" width="50" height="20" as="geometry" />
        </mxCell>
        <mxCell id="vPZERwPmIaohPqJWBLdZ-13" value="submit or (back)" style="text;html=1;strokeColor=none;fillColor=none;align=center;verticalAlign=middle;whiteSpace=wrap;rounded=0;" parent="1" vertex="1">
          <mxGeometry x="860" y="120" width="70" height="20" as="geometry" />
        </mxCell>
        <mxCell id="vPZERwPmIaohPqJWBLdZ-17" style="edgeStyle=orthogonalEdgeStyle;rounded=0;orthogonalLoop=1;jettySize=auto;html=1;exitX=0;exitY=0.75;exitDx=0;exitDy=0;entryX=0.5;entryY=1;entryDx=0;entryDy=0;endArrow=classic;endFill=1;" parent="1" source="vPZERwPmIaohPqJWBLdZ-14" target="PKyjZfos0Iyk5XxEU7YQ-7" edge="1">
          <mxGeometry relative="1" as="geometry" />
        </mxCell>
        <mxCell id="BZrMAcmhihZut8GjaAJ6-13" style="edgeStyle=orthogonalEdgeStyle;rounded=0;orthogonalLoop=1;jettySize=auto;html=1;exitX=1;exitY=0.25;exitDx=0;exitDy=0;entryX=0;entryY=0.25;entryDx=0;entryDy=0;" edge="1" parent="1" source="vPZERwPmIaohPqJWBLdZ-14" target="W07s5E72zUU4T2gRtmsP-2">
          <mxGeometry relative="1" as="geometry" />
        </mxCell>
        <mxCell id="vPZERwPmIaohPqJWBLdZ-14" value="View CSI" style="rounded=0;whiteSpace=wrap;html=1;fillColor=#FFFFFF;" parent="1" vertex="1">
          <mxGeometry x="780" y="200" width="120" height="60" as="geometry" />
        </mxCell>
        <mxCell id="vPZERwPmIaohPqJWBLdZ-16" value="CSI clicked" style="text;html=1;strokeColor=none;fillColor=none;align=center;verticalAlign=middle;whiteSpace=wrap;rounded=0;" parent="1" vertex="1">
          <mxGeometry x="700" y="190" width="70" height="20" as="geometry" />
        </mxCell>
        <mxCell id="vPZERwPmIaohPqJWBLdZ-20" value="(back)" style="text;html=1;strokeColor=none;fillColor=none;align=center;verticalAlign=middle;whiteSpace=wrap;rounded=0;" parent="1" vertex="1">
          <mxGeometry x="690" y="250" width="70" height="20" as="geometry" />
        </mxCell>
        <mxCell id="vPZERwPmIaohPqJWBLdZ-22" value="State Machine Diagram" style="text;html=1;strokeColor=none;fillColor=none;align=center;verticalAlign=middle;whiteSpace=wrap;rounded=0;fontFamily=Times New Roman;fontSize=30;" parent="1" vertex="1">
          <mxGeometry x="245" y="-260" width="240" height="80" as="geometry" />
        </mxCell>
        <mxCell id="Et5zAZnM-OoE2oRhIEQK-4" style="edgeStyle=orthogonalEdgeStyle;rounded=0;jumpSize=6;orthogonalLoop=1;jettySize=auto;html=1;exitX=1;exitY=0.5;exitDx=0;exitDy=0;entryX=0.5;entryY=1;entryDx=0;entryDy=0;endArrow=classic;endFill=1;endSize=6;" parent="1" source="Et5zAZnM-OoE2oRhIEQK-1" target="BZrMAcmhihZut8GjaAJ6-26" edge="1">
          <mxGeometry relative="1" as="geometry" />
        </mxCell>
        <mxCell id="BZrMAcmhihZut8GjaAJ6-23" style="edgeStyle=orthogonalEdgeStyle;rounded=0;orthogonalLoop=1;jettySize=auto;html=1;exitX=0;exitY=0.5;exitDx=0;exitDy=0;entryX=0;entryY=0.75;entryDx=0;entryDy=0;" edge="1" parent="1" source="Et5zAZnM-OoE2oRhIEQK-1" target="PKyjZfos0Iyk5XxEU7YQ-4">
          <mxGeometry relative="1" as="geometry">
            <Array as="points">
              <mxPoint y="370" />
              <mxPoint y="35" />
            </Array>
          </mxGeometry>
        </mxCell>
        <mxCell id="Et5zAZnM-OoE2oRhIEQK-1" value="Register Page" style="rounded=0;whiteSpace=wrap;html=1;fillColor=#FFFFFF;" parent="1" vertex="1">
          <mxGeometry x="40" y="340" width="120" height="60" as="geometry" />
        </mxCell>
        <mxCell id="Et5zAZnM-OoE2oRhIEQK-3" value="Register" style="text;html=1;strokeColor=none;fillColor=none;align=center;verticalAlign=middle;whiteSpace=wrap;rounded=0;" parent="1" vertex="1">
          <mxGeometry x="20" y="290" width="70" height="20" as="geometry" />
        </mxCell>
        <mxCell id="Et5zAZnM-OoE2oRhIEQK-5" value="Login" style="text;html=1;strokeColor=none;fillColor=none;align=center;verticalAlign=middle;whiteSpace=wrap;rounded=0;" parent="1" vertex="1">
          <mxGeometry x="160" y="240" width="45" height="20" as="geometry" />
        </mxCell>
        <mxCell id="Et5zAZnM-OoE2oRhIEQK-10" style="edgeStyle=orthogonalEdgeStyle;rounded=0;jumpSize=6;orthogonalLoop=1;jettySize=auto;html=1;exitX=0;exitY=0.75;exitDx=0;exitDy=0;entryX=0.5;entryY=1;entryDx=0;entryDy=0;endArrow=classic;endFill=1;endSize=6;" parent="1" source="Et5zAZnM-OoE2oRhIEQK-6" target="BZrMAcmhihZut8GjaAJ6-1" edge="1">
          <mxGeometry relative="1" as="geometry">
            <Array as="points">
              <mxPoint x="470" y="385" />
              <mxPoint x="470" y="160" />
              <mxPoint x="365" y="160" />
            </Array>
          </mxGeometry>
        </mxCell>
        <mxCell id="Et5zAZnM-OoE2oRhIEQK-6" value="View CSI Admin Page" style="rounded=0;whiteSpace=wrap;html=1;fillColor=#FFFFFF;" parent="1" vertex="1">
          <mxGeometry x="540" y="330" width="120" height="60" as="geometry" />
        </mxCell>
        <mxCell id="Et5zAZnM-OoE2oRhIEQK-8" value="CSI Admin page clicked and user is a CSI admin" style="text;html=1;strokeColor=none;fillColor=none;align=center;verticalAlign=middle;whiteSpace=wrap;rounded=0;" parent="1" vertex="1">
          <mxGeometry x="515" y="270" width="135" height="20" as="geometry" />
        </mxCell>
        <mxCell id="Et5zAZnM-OoE2oRhIEQK-11" value="(back)" style="text;html=1;strokeColor=none;fillColor=none;align=center;verticalAlign=middle;whiteSpace=wrap;rounded=0;" parent="1" vertex="1">
          <mxGeometry x="485" y="390" width="50" height="20" as="geometry" />
        </mxCell>
        <mxCell id="BZrMAcmhihZut8GjaAJ6-14" style="edgeStyle=orthogonalEdgeStyle;rounded=0;orthogonalLoop=1;jettySize=auto;html=1;exitX=0;exitY=0.75;exitDx=0;exitDy=0;entryX=1;entryY=0.75;entryDx=0;entryDy=0;" edge="1" parent="1" source="W07s5E72zUU4T2gRtmsP-2" target="vPZERwPmIaohPqJWBLdZ-14">
          <mxGeometry relative="1" as="geometry" />
        </mxCell>
        <mxCell id="W07s5E72zUU4T2gRtmsP-2" value="View CSI Forum" style="rounded=0;whiteSpace=wrap;html=1;" parent="1" vertex="1">
          <mxGeometry x="1010" y="200" width="120" height="60" as="geometry" />
        </mxCell>
        <mxCell id="W07s5E72zUU4T2gRtmsP-4" value="CSI Forum button clicked" style="text;html=1;strokeColor=none;fillColor=none;align=center;verticalAlign=middle;whiteSpace=wrap;rounded=0;" parent="1" vertex="1">
          <mxGeometry x="920" y="180" width="70" height="20" as="geometry" />
        </mxCell>
        <mxCell id="BZrMAcmhihZut8GjaAJ6-2" style="edgeStyle=orthogonalEdgeStyle;rounded=0;orthogonalLoop=1;jettySize=auto;html=1;exitX=0.75;exitY=1;exitDx=0;exitDy=0;entryX=0.75;entryY=0;entryDx=0;entryDy=0;" edge="1" parent="1" source="W07s5E72zUU4T2gRtmsP-6" target="BZrMAcmhihZut8GjaAJ6-1">
          <mxGeometry relative="1" as="geometry">
            <Array as="points" />
          </mxGeometry>
        </mxCell>
        <mxCell id="W07s5E72zUU4T2gRtmsP-6" value="View Notification Feed" style="rounded=0;whiteSpace=wrap;html=1;" parent="1" vertex="1">
          <mxGeometry x="305" y="-120" width="120" height="60" as="geometry" />
        </mxCell>
        <mxCell id="W07s5E72zUU4T2gRtmsP-8" value="Notification Feed button clicked" style="text;html=1;strokeColor=none;fillColor=none;align=center;verticalAlign=middle;whiteSpace=wrap;rounded=0;" parent="1" vertex="1">
          <mxGeometry x="250" y="-10" width="110" height="20" as="geometry" />
        </mxCell>
        <mxCell id="BZrMAcmhihZut8GjaAJ6-5" style="edgeStyle=orthogonalEdgeStyle;rounded=0;orthogonalLoop=1;jettySize=auto;html=1;exitX=1;exitY=0.25;exitDx=0;exitDy=0;entryX=0;entryY=0.25;entryDx=0;entryDy=0;" edge="1" parent="1" source="BZrMAcmhihZut8GjaAJ6-1" target="PKyjZfos0Iyk5XxEU7YQ-7">
          <mxGeometry relative="1" as="geometry" />
        </mxCell>
        <mxCell id="BZrMAcmhihZut8GjaAJ6-19" style="edgeStyle=orthogonalEdgeStyle;rounded=0;orthogonalLoop=1;jettySize=auto;html=1;exitX=0.25;exitY=1;exitDx=0;exitDy=0;entryX=0.5;entryY=0;entryDx=0;entryDy=0;" edge="1" parent="1" source="BZrMAcmhihZut8GjaAJ6-1" target="BZrMAcmhihZut8GjaAJ6-16">
          <mxGeometry relative="1" as="geometry">
            <Array as="points">
              <mxPoint x="335" y="230" />
              <mxPoint x="380" y="230" />
            </Array>
          </mxGeometry>
        </mxCell>
        <mxCell id="BZrMAcmhihZut8GjaAJ6-33" style="edgeStyle=orthogonalEdgeStyle;rounded=0;orthogonalLoop=1;jettySize=auto;html=1;exitX=0;exitY=0.25;exitDx=0;exitDy=0;entryX=1;entryY=0.25;entryDx=0;entryDy=0;" edge="1" parent="1" source="BZrMAcmhihZut8GjaAJ6-1" target="PKyjZfos0Iyk5XxEU7YQ-4">
          <mxGeometry relative="1" as="geometry" />
        </mxCell>
        <mxCell id="BZrMAcmhihZut8GjaAJ6-1" value="Nav bar" style="rounded=0;whiteSpace=wrap;html=1;" vertex="1" parent="1">
          <mxGeometry x="305" y="65" width="120" height="60" as="geometry" />
        </mxCell>
        <mxCell id="BZrMAcmhihZut8GjaAJ6-3" value="Nav bar clicked" style="text;html=1;strokeColor=none;fillColor=none;align=center;verticalAlign=middle;whiteSpace=wrap;rounded=0;" vertex="1" parent="1">
          <mxGeometry x="395" y="-10" width="60" height="20" as="geometry" />
        </mxCell>
        <mxCell id="BZrMAcmhihZut8GjaAJ6-10" value="(back)" style="text;html=1;strokeColor=none;fillColor=none;align=center;verticalAlign=middle;whiteSpace=wrap;rounded=0;" vertex="1" parent="1">
          <mxGeometry x="932.5" y="250" width="45" height="20" as="geometry" />
        </mxCell>
        <mxCell id="BZrMAcmhihZut8GjaAJ6-22" style="edgeStyle=orthogonalEdgeStyle;rounded=0;orthogonalLoop=1;jettySize=auto;html=1;exitX=0.25;exitY=0;exitDx=0;exitDy=0;entryX=0;entryY=1;entryDx=0;entryDy=0;" edge="1" parent="1" source="BZrMAcmhihZut8GjaAJ6-16" target="BZrMAcmhihZut8GjaAJ6-1">
          <mxGeometry relative="1" as="geometry" />
        </mxCell>
        <mxCell id="BZrMAcmhihZut8GjaAJ6-16" value="User profile page" style="rounded=0;whiteSpace=wrap;html=1;fillColor=#FFFFFF;" vertex="1" parent="1">
          <mxGeometry x="320" y="370" width="120" height="60" as="geometry" />
        </mxCell>
        <mxCell id="BZrMAcmhihZut8GjaAJ6-18" value="User profile button clicked" style="text;html=1;strokeColor=none;fillColor=none;align=center;verticalAlign=middle;whiteSpace=wrap;rounded=0;" vertex="1" parent="1">
          <mxGeometry x="340" y="190" width="75" height="20" as="geometry" />
        </mxCell>
        <mxCell id="BZrMAcmhihZut8GjaAJ6-21" value="Nav bar clicked" style="text;html=1;strokeColor=none;fillColor=none;align=center;verticalAlign=middle;whiteSpace=wrap;rounded=0;" vertex="1" parent="1">
          <mxGeometry x="290" y="310" width="60" height="20" as="geometry" />
        </mxCell>
        <mxCell id="BZrMAcmhihZut8GjaAJ6-25" value="(back)" style="text;html=1;strokeColor=none;fillColor=none;align=center;verticalAlign=middle;whiteSpace=wrap;rounded=0;" vertex="1" parent="1">
          <mxGeometry x="-70" y="290" width="70" height="20" as="geometry" />
        </mxCell>
        <mxCell id="BZrMAcmhihZut8GjaAJ6-30" style="edgeStyle=orthogonalEdgeStyle;rounded=0;orthogonalLoop=1;jettySize=auto;html=1;exitX=1;exitY=0.5;exitDx=0;exitDy=0;entryX=0;entryY=0.5;entryDx=0;entryDy=0;" edge="1" parent="1" source="BZrMAcmhihZut8GjaAJ6-26" target="BZrMAcmhihZut8GjaAJ6-1">
          <mxGeometry relative="1" as="geometry" />
        </mxCell>
        <mxCell id="BZrMAcmhihZut8GjaAJ6-26" value="Welcome back page" style="rounded=0;whiteSpace=wrap;html=1;" vertex="1" parent="1">
          <mxGeometry x="100" y="120" width="120" height="60" as="geometry" />
        </mxCell>
        <mxCell id="BZrMAcmhihZut8GjaAJ6-28" value="Login" style="text;html=1;strokeColor=none;fillColor=none;align=center;verticalAlign=middle;whiteSpace=wrap;rounded=0;" vertex="1" parent="1">
          <mxGeometry x="180" y="45" width="45" height="20" as="geometry" />
        </mxCell>
        <mxCell id="BZrMAcmhihZut8GjaAJ6-31" value="Nav bar clicked" style="text;html=1;strokeColor=none;fillColor=none;align=center;verticalAlign=middle;whiteSpace=wrap;rounded=0;" vertex="1" parent="1">
          <mxGeometry x="220" y="160" width="60" height="20" as="geometry" />
        </mxCell>
        <mxCell id="BZrMAcmhihZut8GjaAJ6-34" value="Log out button clicked" style="text;html=1;strokeColor=none;fillColor=none;align=center;verticalAlign=middle;whiteSpace=wrap;rounded=0;" vertex="1" parent="1">
          <mxGeometry x="260" y="50" width="45" height="20" as="geometry" />
        </mxCell>
        <mxCell id="BZrMAcmhihZut8GjaAJ6-36" style="edgeStyle=orthogonalEdgeStyle;rounded=0;orthogonalLoop=1;jettySize=auto;html=1;exitX=0;exitY=0.5;exitDx=0;exitDy=0;entryX=0;entryY=0.5;entryDx=0;entryDy=0;" edge="1" parent="1" source="BZrMAcmhihZut8GjaAJ6-35" target="BZrMAcmhihZut8GjaAJ6-26">
          <mxGeometry relative="1" as="geometry" />
        </mxCell>
        <mxCell id="BZrMAcmhihZut8GjaAJ6-35" value="" style="ellipse;whiteSpace=wrap;html=1;aspect=fixed;fillColor=#000000;" vertex="1" parent="1">
          <mxGeometry x="80" y="240" width="30" height="30" as="geometry" />
        </mxCell>
        <mxCell id="BZrMAcmhihZut8GjaAJ6-37" value="App startup if user is still logged in" style="text;html=1;strokeColor=none;fillColor=none;align=center;verticalAlign=middle;whiteSpace=wrap;rounded=0;" vertex="1" parent="1">
          <mxGeometry x="60" y="200" width="70" height="20" as="geometry" />
        </mxCell>
      </root>
    </mxGraphModel>
  </diagram>
</mxfile>
